<?xml version="1.0" encoding="UTF-8" standalone="no"?>
<!-- Created with Inkscape (http://www.inkscape.org/) -->

<svg
   version="1.1"
   id="svg1"
   width="1986.9091"
   height="1489.4545"
   viewBox="0 0 1986.9091 1489.4545"
   xmlns="http://www.w3.org/2000/svg"
   xmlns:svg="http://www.w3.org/2000/svg">
  <defs
     id="defs1" />
  <g
     id="g1">
    <path
       style="fill:#000000"
       d="m 800.21942,1068.8784 c -6.11242,-0.597 -11.51149,-1.9836 -15.43476,-3.9641 -8.64762,-4.3653 -18.22938,-16.4876 -23.21185,-29.3664 -2.88612,-7.46 -7.90403,-31.71 -7.88287,-38.09527 0.021,-6.3269 1.7614,-10.1251 6.08989,-13.2903 1.83439,-1.3414 3.53116,-3.1504 3.7706,-4.02 0.24643,-0.8951 -1.94281,-11.4675 -5.04502,-24.3637 -3.0142,-12.5303 -7.31561,-30.4733 -9.55868,-39.87332 -2.24308,-9.4 -7.00616,-29.28182 -10.58463,-44.18181 -3.57847,-14.9 -9.46832,-39.44544 -13.08856,-54.54544 -3.62024,-15.09999 -8.35057,-34.81816 -10.51184,-43.81816 -2.16128,-9 -4.94167,-20.61818 -6.17864,-25.81817 -2.86597,-12.04802 -8.53619,-35.70305 -16.73573,-69.81816 -12.51858,-52.08496 -20.23443,-84.38689 -20.68667,-86.6035 -0.40545,-1.98726 -1.04825,-2.46737 -5.69911,-4.25676 -17.40813,-6.69765 -30.73435,-20.86762 -34.40912,-36.58774 -1.57986,-6.7584 -1.08892,-17.92863 1.04711,-23.82467 2.09115,-5.77213 7.36108,-13.38916 12.32355,-17.81213 4.28564,-3.81973 11.65481,-8.01254 16.70543,-9.50483 l 3.09091,-0.91326 0.004,-8.79397 c 0.0117,-23.97033 6.99725,-43.15921 20.48173,-56.26198 10.18514,-9.89683 21.39057,-14.38115 35.51399,-14.21241 12.14467,0.1451 23.51043,3.91555 34.40916,11.41481 l 4.95463,3.40921 2.2482,-1.89174 c 6.16295,-5.18577 17.6428,-9.07002 26.80637,-9.07002 h 5.41635 l 4.34931,-6.60989 c 9.86387,-14.99069 22.92321,-24.93272 37.31802,-28.41009 5.63334,-1.36085 17.89286,-1.0094 24.22503,0.69448 5.7218,1.53963 16.00104,6.39955 21.70634,10.26252 3.1364,2.12363 3.3166,2.15863 5.0909,0.98855 3.2504,-2.1436 9.9309,-5.16843 14.3089,-6.47886 4.4342,-1.32728 19.4394,-1.86649 23.9206,-0.85958 2.0257,0.45517 2.4767,0.16572 5.4545,-3.50001 1.7854,-2.19792 5.6572,-5.95454 8.6039,-8.34804 24.7703,-20.1198 59.572,-17.43045 82.32334,6.36166 5.1796,5.41658 8.1329,9.45679 11.1692,15.27992 1.6364,3.13848 2.3597,3.82074 4.4706,4.21673 4.0731,0.76413 12.73,4.54684 14.7821,6.45916 1.0434,0.97239 3.2062,2.60932 4.8062,3.63762 4.6138,2.96522 5.8663,4.21722 8.6851,8.68175 4.4628,7.06834 7.4103,14.36 9.0353,22.35134 1.8497,9.09629 1.9029,11.39379 0.4343,18.75793 -1.6321,8.18436 -5.1581,14.86062 -10.935,20.70412 l -4.8605,4.9166 0.8915,4.53794 c 0.4904,2.49586 1.0198,4.74667 1.1766,5.00179 0.1567,0.25511 3.3089,-0.48422 7.0049,-1.64296 10.5753,-3.31558 18.5853,-4.49432 30.7495,-4.52509 19.4938,-0.0493 36.3286,4.71591 51.6364,14.61607 9.7482,6.30452 19.9876,17.81443 23.7801,26.73082 3.0572,7.18755 5.1245,12.63465 6.0699,15.99365 3.1646,11.24389 41.224,165.64945 42.2377,171.35653 1.5976,8.99491 1.5682,22.94571 -0.068,32.27976 -6.0051,34.25743 -29.4913,62.08509 -60.7471,71.97602 -3.4,1.07594 -9.886,2.4817 -14.4134,3.12392 -6.7477,0.95716 -8.1828,1.37299 -7.9604,2.30658 0.1493,0.62639 3.0353,12.98361 6.4135,27.46047 l 6.1421,26.32156 4,-0.0127 c 9.4636,-0.03 15.6879,5.95559 17.1166,16.46045 0.272,2.00001 1.4391,6.35651 2.5935,9.68111 6.4767,18.65322 6.7219,39.00722 0.6165,51.16912 -4.2543,8.4745 -11.6945,15.1333 -19.7718,17.6952 -2.1051,0.6677 -5.1366,1.8599 -6.7366,2.6493 -1.6,0.7895 -20.9091,5.8394 -42.9091,11.2221 -48.1427,11.77907 -126.87264,31.09417 -165.81804,40.68087 -15.6,3.8401 -35.5637,8.7456 -44.3637,10.9011 -51.63237,12.6475 -69.32728,17.0702 -71.27043,17.8134 -6.50833,2.4895 -17.62706,3.8901 -25.09319,3.1609 z m 13.81819,-29.5672 c 3,-0.6328 9.21818,-1.8412 13.81818,-2.6852 10.92378,-2.0042 17.57283,-3.5554 59.27275,-13.828 19.2,-4.7298 41.1272,-10.1221 48.7272,-11.9828 12.9169,-3.1625 33.2067,-8.1467 113.81816,-27.95917 17.8,-4.3748 45.9455,-11.2905 62.5455,-15.368 34.2793,-8.4202 37.8034,-9.7204 40.0376,-14.7712 1.9251,-4.3519 2.4456,-10.1076 1.4894,-16.4679 -0.9718,-6.4633 -4.3948,-18.1618 -5.3143,-18.1618 -0.3568,0 -51.278,12.1331 -113.158,26.9624 -61.88006,14.8294 -128.70926,30.8443 -148.50926,35.5887 -19.79996,4.7445 -40.74542,9.7733 -46.54542,11.1752 -5.8,1.4019 -13.49091,3.2533 -17.09091,4.1143 -3.6,0.861 -10.47272,2.5287 -15.27272,3.7061 -4.8,1.17737 -10.36364,2.43187 -12.36364,2.78767 -2,0.3559 -5.17189,1.3331 -7.04865,2.1717 -3.13663,1.4014 -3.45039,1.7787 -3.88406,4.6706 -0.25947,1.7303 -0.14255,5.8692 0.25983,9.1976 0.84326,6.975 4.56657,15.2424 8.8532,19.658 l 2.54695,2.6235 6.18182,-0.1405 c 3.4,-0.077 8.63637,-0.6583 11.63637,-1.2912 z m -3.15216,-67.79967 c 9.13369,-2.2166 20.04306,-4.8552 24.24306,-5.8635 4.2,-1.0083 10.90909,-2.6313 14.90909,-3.6067 6.70157,-1.6342 111.27234,-26.6965 227.8164,-54.60042 35.6622,-8.53847 48.1806,-11.80349 48.1819,-12.56666 9e-4,-0.56708 -7.2136,-31.65797 -16.0323,-69.09088 -8.8187,-37.43291 -16.4922,-70.02346 -17.0522,-72.42346 -0.56,-2.4 -1.6792,-7.14546 -2.4872,-10.54545 -3.5371,-14.88449 -38.3404,-162.75829 -42.022,-178.54539 -2.2388,-9.6 -4.2922,-17.70745 -4.5632,-18.01656 -0.271,-0.30911 -4.2326,0.73523 -8.8035,2.32075 -20.3078,7.04429 -30.2135,12.05715 -51.70876,26.16776 -24.9509,16.37907 -32.3785,20.85707 -46.0564,27.76687 -21.2909,10.7557 -50.3087,19.40872 -72.69701,21.67799 -3.45438,0.35013 -6.4532,0.80912 -6.66405,1.01997 -0.77894,0.77895 -0.37073,9.82003 0.75481,16.71766 0.63803,3.90996 1.2162,10.78268 1.28483,15.27272 0.11867,7.76334 0.005,8.44678 -2.31033,13.93571 -4.20854,9.9756 -10.6613,18.4262 -17.8228,23.34094 -4.50029,3.08842 -18.44022,8.12563 -25.10113,9.07031 -5.61661,0.79658 -13.67754,0.0243 -19.31984,-1.85096 -4.9196,-1.63506 -13.45053,-5.76437 -15.22692,-7.37044 -0.80634,-0.72902 -3.37056,-2.92914 -5.69825,-4.88914 -2.32769,-1.96001 -5.03587,-4.77812 -6.01817,-6.26248 -3.06684,-4.6343 -6.75205,-15.0827 -10.51426,-29.81023 -1.99253,-7.79999 -3.92086,-15.16363 -4.28517,-16.36363 -0.3643,-1.2 -1.51103,-5.01922 -2.54827,-8.48716 l -1.88591,-6.30534 -2.33298,0.66909 c -1.99712,0.57277 -7.91569,1.02975 -32.40542,2.50208 -2.13497,0.12835 -4.02256,0.37415 -4.19463,0.54623 -0.31272,0.31272 0.1788,2.45993 8.36201,36.52964 5.20878,21.68602 7.51922,31.32874 12.37235,51.63634 6.1809,25.86358 18.72575,78.18269 24.06476,100.3636 2.79216,11.6 8.17281,34.01817 11.95701,49.81817 26.70888,111.51617 26.64982,111.27267 26.98381,111.27267 0.11769,0 7.68699,-1.8135 16.82067,-4.0301 z M 1147.371,804.31495 c 14.1808,-2.71324 26.72,-10.61047 35.6058,-22.42476 10.7113,-14.24131 15.7193,-32.39336 13.6513,-49.48131 -0.7381,-6.09931 -27.2184,-114.43155 -41.124,-168.24044 -4.1122,-15.91242 -8.3736,-23.56341 -16.5947,-29.79442 -13.2463,-10.03982 -33.2057,-14.53931 -51.7809,-11.67315 -8.7763,1.35418 -18.7985,4.70058 -19.1189,6.38374 -0.1235,0.64854 9.259,41.39398 20.8498,90.54542 19.8073,83.99357 36.1261,153.41038 40.9265,174.0935 1.1605,5 2.2866,9.66363 2.5025,10.36363 0.5047,1.63606 7.1942,1.7371 15.0826,0.22779 z M 818.39519,674.94035 c 6.27619,-2.18233 7.17721,-2.73662 9.92226,-6.10405 1.66057,-2.03706 3.73543,-5.61622 4.6108,-7.95369 1.47452,-3.93733 1.52895,-4.6779 0.74007,-10.06812 -0.46834,-3.2 -2.08227,-10.72727 -3.58651,-16.72727 -3.16176,-12.61138 -4.40784,-18.81489 -4.40784,-21.94413 0,-1.22111 -2.09377,-10.85596 -4.65283,-21.41075 -6.87921,-28.37323 -7.22098,-30.17299 -6.72935,-35.43765 0.83227,-8.91264 6.60541,-18.10917 15.12311,-24.09091 5.94904,-4.17785 10.71221,-6.12479 19.89543,-8.13225 5.92294,-1.29476 31.76141,-7.48782 63.63641,-15.2526 13.776,-3.35587 32.1141,-7.79405 64.7272,-15.66523 64.46066,-15.55764 60.07606,-14.35491 63.60566,-17.44764 3.5517,-3.11206 8.3943,-11.65534 8.3943,-14.80909 0,-3.98679 -2.3334,-12.18356 -4.5944,-16.13929 -2.0913,-3.6589 -6.4336,-7.7623 -10.5394,-9.95967 -0.8238,-0.44089 -3.7284,-0.80881 -6.4547,-0.81759 -8.7498,-0.0282 -13.8074,-3.85155 -16.6438,-12.58199 -2.8729,-8.84281 -10.387,-17.93096 -18.32226,-22.16044 -10.6522,-5.67752 -21.7035,-5.92771 -31.594,-0.71526 -5.9983,3.16123 -9.3633,6.3203 -13.9617,13.10753 -7.0213,10.36357 -12.2535,12.48358 -22.859,9.26226 -4.2582,-1.29341 -6.519,-1.55082 -11.2697,-1.28318 -7.8201,0.44055 -11.7902,2.32032 -15.5138,7.34551 -6.2483,8.43245 -14.6246,9.21805 -22.3573,2.09686 -11.13824,-10.25738 -22.53172,-15.45758 -31.54595,-14.39813 -10.93073,1.28469 -19.04969,8.65172 -28.36212,25.73539 -6.23317,11.43475 -7.65449,12.08455 -23.46924,10.72963 -6.17975,-0.52945 -7.29773,-0.43398 -10.18182,0.86948 -3.69552,1.67018 -6.04064,3.71875 -7.5266,6.57485 -2.18119,4.19238 -7.51313,7.43345 -12.22888,7.43345 -3.44052,0 -12.44576,-4.65574 -18.75708,-9.69747 -15.22663,-12.16365 -30.30869,-13.11074 -40.69854,-2.55572 -4.10868,4.174 -7.27281,9.89115 -9.599,17.3441 -1.50616,4.82562 -1.70161,6.88008 -1.69514,17.81817 0.006,9.91995 0.26916,13.19547 1.33212,16.57225 1.90834,6.06236 1.19707,9.23657 -3.05381,13.6283 -2.88879,2.98452 -3.90181,3.55515 -7.0129,3.95037 -13.32056,1.6922 -16.82798,2.9158 -21.66791,7.55912 -3.29808,3.1641 -5.21878,8.74515 -4.46643,12.97822 1.21833,6.85483 7.58391,14.39255 15.1953,17.99331 3.34442,1.58216 4.2101,1.72539 6.21143,1.02773 1.34302,-0.46818 4.09887,-0.62529 6.52328,-0.37189 3.50101,0.36593 5.21938,0.0825 10.35159,-1.70735 3.38456,-1.18037 8.50106,-2.47903 11.37001,-2.88592 5.64699,-0.80089 11.48192,-2.17223 19.23581,-4.52085 6.50222,-1.9695 9.86362,-1.48287 21.00688,3.04116 9.44382,3.83409 11.11684,5.01582 14.36705,10.14812 3.17853,5.0191 9.23563,22.11421 10.19346,28.76921 1.56607,10.8811 3.08943,18.16753 5.47378,26.18181 1.30905,4.4 3.75162,13.23636 5.42792,19.63635 1.67631,6.4 4.19526,15.25469 5.59767,19.67709 2.40894,7.5964 2.75718,8.21932 6.30177,11.27255 3.89646,3.35633 11.28591,6.45916 15.42384,6.47647 1.2,0.005 5.28819,-1.071 9.08486,-2.39116 z m -99.99395,-74.6898 c 4.12567,-0.63607 23.74942,-2.89058 25.16028,-2.89058 1.14656,0 0.69795,-2.35897 -1.71944,-9.04147 -2.22667,-6.1553 -2.53672,-6.60569 -5.91134,-8.587 l -3.56141,-2.09097 -7.34768,1.18442 c -4.04122,0.65143 -9.80222,1.48543 -12.80222,1.85333 -5.99727,0.73546 -12.36364,2.08712 -12.36364,2.62495 0,0.50212 3.63381,16.45386 3.97097,17.43181 0.31299,0.90784 6.98149,0.68616 14.57448,-0.48449 z m 144.89002,-2.89263 c 12.46958,-1.39474 32.72718,-6.38106 46.38268,-11.41691 6.8175,-2.51413 26.4364,-12.44577 32.5508,-16.47814 2.703,-1.78254 8.2666,-5.28566 12.3637,-7.78471 4.097,-2.49904 11.3764,-7.22776 16.1764,-10.50827 9.8905,-6.75954 24.9507,-15.44959 30.90906,-17.83526 5.1853,-2.07611 23.805,-8.10587 30.253,-9.79707 2.7609,-0.72413 5.2992,-1.56071 5.6408,-1.85906 0.5128,-0.4479 -1.9982,-13.80062 -2.8823,-15.32701 -0.2901,-0.50085 -4.2921,0.40411 -35.90346,8.11861 -26.4968,6.46634 -115.4902,28.00127 -139.91954,33.85821 -12.33215,2.95663 -16.72328,5.10694 -17.6053,8.62122 -0.27475,1.09468 1.43981,9.54539 4.43445,21.85647 l 4.8824,20.07173 3.00456,-0.38474 c 1.6525,-0.21161 6.02324,-0.7224 9.71275,-1.13507 z"
       id="path2" />
    <path
       style="fill:#000000"
       id="path1" />
  </g>
</svg>
